<svg width="688" height="690" viewBox="0 0 688 690" fill="none" xmlns="http://www.w3.org/2000/svg">
<rect y="96" width="688" height="496" rx="76" fill="#3344AA"/>
<path d="M394 344.489C394 371.504 371.614 393.404 344 393.404C316.386 393.404 294 371.504 294 344.489C294 317.474 316.386 261.822 344 261.822C371.614 261.822 394 317.474 394 344.489Z" fill="white"/>
<path d="M184 387.86C184 340.856 242.545 319.301 273.025 355.084L295.714 381.721C321.04 411.452 366.96 411.452 392.286 381.721L414.975 355.084C445.455 319.301 504 340.856 504 387.86V387.86C504 415.776 481.37 438.406 453.454 438.406H234.546C206.63 438.406 184 415.776 184 387.86V387.86Z" fill="white"/>
</svg>